<?xml version="1.0" encoding="UTF-8" standalone="no"?>
<!DOCTYPE svg PUBLIC "-//W3C//DTD SVG 1.1//EN"
 "http://www.w3.org/Graphics/SVG/1.1/DTD/svg11.dtd">
<!-- Generated by graphviz version 2.38.0 (20140413.2041)
 -->
<!-- Title: %3 Pages: 1 -->
<svg width="539pt" height="479pt"
 viewBox="0.00 0.00 538.64 479.00" xmlns="http://www.w3.org/2000/svg" xmlns:xlink="http://www.w3.org/1999/xlink">
<g id="graph0" class="graph" transform="scale(1 1) rotate(0) translate(4 475)">
<title>%3</title>
<polygon fill="white" stroke="none" points="-4,4 -4,-475 534.643,-475 534.643,4 -4,4"/>
<!-- Raw Image -->
<g id="node1" class="node"><title>Raw Image</title>
<ellipse fill="none" stroke="black" cx="248.643" cy="-453" rx="51.9908" ry="18"/>
<text text-anchor="middle" x="248.643" y="-449.3" font-family="Times New Roman,serif" font-size="14.00">Raw Image</text>
</g>
<!-- Details Only -->
<g id="node2" class="node"><title>Details Only</title>
<ellipse fill="none" stroke="black" cx="85.643" cy="-366" rx="55.4913" ry="18"/>
<text text-anchor="middle" x="85.643" y="-362.3" font-family="Times New Roman,serif" font-size="14.00">Details Only</text>
</g>
<!-- Raw Image&#45;&gt;Details Only -->
<g id="edge1" class="edge"><title>Raw Image&#45;&gt;Details Only</title>
<path fill="none" stroke="black" d="M197.615,-449.01C169.707,-445.073 135.97,-436.301 111.643,-417 104.069,-410.991 98.4687,-402.172 94.4464,-393.607"/>
<polygon fill="black" stroke="black" points="97.6141,-392.108 90.5546,-384.208 91.1466,-394.786 97.6141,-392.108"/>
<text text-anchor="middle" x="138.643" y="-405.8" font-family="Times New Roman,serif" font-size="14.00">Laplacian</text>
</g>
<!-- Highlighted Details -->
<g id="node3" class="node"><title>Highlighted Details</title>
<ellipse fill="none" stroke="black" cx="78.643" cy="-279" rx="78.7863" ry="18"/>
<text text-anchor="middle" x="78.643" y="-275.3" font-family="Times New Roman,serif" font-size="14.00">Highlighted Details</text>
</g>
<!-- Raw Image&#45;&gt;Highlighted Details -->
<g id="edge2" class="edge"><title>Raw Image&#45;&gt;Highlighted Details</title>
<path fill="none" stroke="black" d="M233.439,-435.564C214.199,-414.874 179.915,-378.364 149.643,-348 134.734,-333.046 117.653,-316.664 103.981,-303.727"/>
<polygon fill="black" stroke="black" points="106.044,-300.861 96.3679,-296.545 101.24,-305.953 106.044,-300.861"/>
<text text-anchor="middle" x="188.143" y="-362.3" font-family="Times New Roman,serif" font-size="14.00">+</text>
</g>
<!-- Edges -->
<g id="node4" class="node"><title>Edges</title>
<ellipse fill="none" stroke="black" cx="248.643" cy="-366" rx="33.2948" ry="18"/>
<text text-anchor="middle" x="248.643" y="-362.3" font-family="Times New Roman,serif" font-size="14.00">Edges</text>
</g>
<!-- Raw Image&#45;&gt;Edges -->
<g id="edge4" class="edge"><title>Raw Image&#45;&gt;Edges</title>
<path fill="none" stroke="black" d="M248.643,-434.799C248.643,-423.163 248.643,-407.548 248.643,-394.237"/>
<polygon fill="black" stroke="black" points="252.143,-394.175 248.643,-384.175 245.143,-394.175 252.143,-394.175"/>
<text text-anchor="middle" x="265.143" y="-405.8" font-family="Times New Roman,serif" font-size="14.00">Sobel</text>
</g>
<!-- Sharpened Image -->
<g id="node7" class="node"><title>Sharpened Image</title>
<ellipse fill="none" stroke="black" cx="324.643" cy="-105" rx="73.387" ry="18"/>
<text text-anchor="middle" x="324.643" y="-101.3" font-family="Times New Roman,serif" font-size="14.00">Sharpened Image</text>
</g>
<!-- Raw Image&#45;&gt;Sharpened Image -->
<g id="edge8" class="edge"><title>Raw Image&#45;&gt;Sharpened Image</title>
<path fill="none" stroke="black" d="M285.85,-440.239C317.426,-427.66 357.643,-404.316 357.643,-367 357.643,-367 357.643,-367 357.643,-191 357.643,-170.092 348.859,-148.132 340.355,-131.772"/>
<polygon fill="black" stroke="black" points="343.329,-129.917 335.448,-122.836 337.193,-133.286 343.329,-129.917"/>
<text text-anchor="middle" x="362.143" y="-275.3" font-family="Times New Roman,serif" font-size="14.00">+</text>
</g>
<!-- Equalized Image -->
<g id="node9" class="node"><title>Equalized Image</title>
<ellipse fill="none" stroke="black" cx="455.643" cy="-366" rx="70.3881" ry="18"/>
<text text-anchor="middle" x="455.643" y="-362.3" font-family="Times New Roman,serif" font-size="14.00">Equalized Image</text>
</g>
<!-- Raw Image&#45;&gt;Equalized Image -->
<g id="edge11" class="edge"><title>Raw Image&#45;&gt;Equalized Image</title>
<path fill="none" stroke="black" d="M291.425,-442.729C315.517,-436.796 345.853,-428.12 371.643,-417 389.621,-409.249 408.454,-398.33 423.72,-388.673"/>
<polygon fill="black" stroke="black" points="425.754,-391.526 432.263,-383.166 421.962,-385.642 425.754,-391.526"/>
<text text-anchor="middle" x="465.643" y="-405.8" font-family="Times New Roman,serif" font-size="14.00">Histogram Equalization</text>
</g>
<!-- Details Only&#45;&gt;Highlighted Details -->
<g id="edge3" class="edge"><title>Details Only&#45;&gt;Highlighted Details</title>
<path fill="none" stroke="black" d="M84.2265,-347.799C83.2682,-336.163 81.9823,-320.548 80.8861,-307.237"/>
<polygon fill="black" stroke="black" points="84.3665,-306.854 80.0575,-297.175 77.3901,-307.429 84.3665,-306.854"/>
<text text-anchor="middle" x="87.143" y="-318.8" font-family="Times New Roman,serif" font-size="14.00">+</text>
</g>
<!-- Mask -->
<g id="node6" class="node"><title>Mask</title>
<ellipse fill="none" stroke="black" cx="248.643" cy="-192" rx="30.5947" ry="18"/>
<text text-anchor="middle" x="248.643" y="-188.3" font-family="Times New Roman,serif" font-size="14.00">Mask</text>
</g>
<!-- Highlighted Details&#45;&gt;Mask -->
<g id="edge6" class="edge"><title>Highlighted Details&#45;&gt;Mask</title>
<path fill="none" stroke="black" d="M109.824,-262.41C140.314,-247.164 186.501,-224.071 217.111,-208.766"/>
<polygon fill="black" stroke="black" points="218.698,-211.886 226.077,-204.283 215.567,-205.625 218.698,-211.886"/>
<text text-anchor="middle" x="179.143" y="-231.8" font-family="Times New Roman,serif" font-size="14.00">×</text>
</g>
<!-- Smoothed Edges -->
<g id="node5" class="node"><title>Smoothed Edges</title>
<ellipse fill="none" stroke="black" cx="248.643" cy="-279" rx="73.387" ry="18"/>
<text text-anchor="middle" x="248.643" y="-275.3" font-family="Times New Roman,serif" font-size="14.00">Smoothed Edges</text>
</g>
<!-- Edges&#45;&gt;Smoothed Edges -->
<g id="edge5" class="edge"><title>Edges&#45;&gt;Smoothed Edges</title>
<path fill="none" stroke="black" d="M248.643,-347.799C248.643,-336.163 248.643,-320.548 248.643,-307.237"/>
<polygon fill="black" stroke="black" points="252.143,-307.175 248.643,-297.175 245.143,-307.175 252.143,-307.175"/>
<text text-anchor="middle" x="293.143" y="-318.8" font-family="Times New Roman,serif" font-size="14.00">Averaging Filter</text>
</g>
<!-- Smoothed Edges&#45;&gt;Mask -->
<g id="edge7" class="edge"><title>Smoothed Edges&#45;&gt;Mask</title>
<path fill="none" stroke="black" d="M248.643,-260.799C248.643,-249.163 248.643,-233.548 248.643,-220.237"/>
<polygon fill="black" stroke="black" points="252.143,-220.175 248.643,-210.175 245.143,-220.175 252.143,-220.175"/>
<text text-anchor="middle" x="253.143" y="-231.8" font-family="Times New Roman,serif" font-size="14.00">×</text>
</g>
<!-- Mask&#45;&gt;Sharpened Image -->
<g id="edge9" class="edge"><title>Mask&#45;&gt;Sharpened Image</title>
<path fill="none" stroke="black" d="M262.23,-175.804C273.47,-163.233 289.651,-145.136 302.721,-130.518"/>
<polygon fill="black" stroke="black" points="305.555,-132.6 309.611,-122.812 300.336,-127.934 305.555,-132.6"/>
<text text-anchor="middle" x="296.143" y="-144.8" font-family="Times New Roman,serif" font-size="14.00">+</text>
</g>
<!-- Result Image -->
<g id="node8" class="node"><title>Result Image</title>
<ellipse fill="none" stroke="black" cx="324.643" cy="-18" rx="57.6901" ry="18"/>
<text text-anchor="middle" x="324.643" y="-14.3" font-family="Times New Roman,serif" font-size="14.00">Result Image</text>
</g>
<!-- Sharpened Image&#45;&gt;Result Image -->
<g id="edge10" class="edge"><title>Sharpened Image&#45;&gt;Result Image</title>
<path fill="none" stroke="black" d="M324.643,-86.799C324.643,-75.1626 324.643,-59.5479 324.643,-46.2368"/>
<polygon fill="black" stroke="black" points="328.143,-46.1754 324.643,-36.1754 321.143,-46.1755 328.143,-46.1754"/>
<text text-anchor="middle" x="357.143" y="-57.8" font-family="Times New Roman,serif" font-size="14.00">Power&#45;Law</text>
</g>
</g>
</svg>
